<svg width="680" height="520" xmlns="http://www.w3.org/2000/svg">
  <defs>
    <marker id="arr-purple" viewBox="0 0 10 10" refX="8" refY="5" markerWidth="6" markerHeight="6" orient="auto-start-reverse">
      <path d="M2 1L8 5L2 9" fill="none" stroke="#534AB7" stroke-width="1.5" stroke-linecap="round" stroke-linejoin="round"/>
    </marker>
    <marker id="arr-green" viewBox="0 0 10 10" refX="8" refY="5" markerWidth="6" markerHeight="6" orient="auto-start-reverse">
      <path d="M2 1L8 5L2 9" fill="none" stroke="#1D9E75" stroke-width="1.5" stroke-linecap="round" stroke-linejoin="round"/>
    </marker>
    <marker id="arr-coral" viewBox="0 0 10 10" refX="8" refY="5" markerWidth="6" markerHeight="6" orient="auto-start-reverse">
      <path d="M2 1L8 5L2 9" fill="none" stroke="#993C1D" stroke-width="1.5" stroke-linecap="round" stroke-linejoin="round"/>
    </marker>
  </defs>

  <rect width="680" height="520" fill="#0f0f1e" rx="12"/>

  <!-- CLIENT -->
  <line x1="40" y1="36" x2="640" y2="36" stroke="#2a2a4a" stroke-width="1"/>
  <text x="50" y="30" font-family="Helvetica Neue, Arial, sans-serif" font-size="11" fill="#6a6a9a" letter-spacing="1.5">CLIENT</text>

  <rect x="160" y="46" width="160" height="52" rx="8" fill="#1e1b4b" stroke="#534AB7" stroke-width="0.8"/>
  <text x="240" y="70" text-anchor="middle" font-family="Helvetica Neue, Arial, sans-serif" font-size="13" font-weight="600" fill="#CECBF6">Storefront</text>
  <text x="240" y="87" text-anchor="middle" font-family="Helvetica Neue, Arial, sans-serif" font-size="11" fill="#AFA9EC">HTML · CSS · JS</text>

  <rect x="360" y="46" width="160" height="52" rx="8" fill="#1e1b4b" stroke="#534AB7" stroke-width="0.8"/>
  <text x="440" y="70" text-anchor="middle" font-family="Helvetica Neue, Arial, sans-serif" font-size="13" font-weight="600" fill="#CECBF6">Admin Dashboard</text>
  <text x="440" y="87" text-anchor="middle" font-family="Helvetica Neue, Arial, sans-serif" font-size="11" fill="#AFA9EC">Protected route</text>

  <line x1="240" y1="98" x2="240" y2="160" stroke="#534AB7" stroke-width="1.2" marker-end="url(#arr-purple)"/>
  <line x1="440" y1="98" x2="340" y2="160" stroke="#534AB7" stroke-width="1.2" marker-end="url(#arr-purple)"/>
  <path d="M520 72 Q610 72 610 194 Q610 285 542 308" fill="none" stroke="#993C1D" stroke-width="1" stroke-dasharray="4 3" marker-end="url(#arr-coral)"/>
  <text x="618" y="190" font-family="Helvetica Neue, Arial, sans-serif" font-size="10" fill="#D85A30">direct</text>

  <!-- SERVER -->
  <line x1="40" y1="150" x2="640" y2="150" stroke="#2a2a4a" stroke-width="1"/>
  <text x="50" y="144" font-family="Helvetica Neue, Arial, sans-serif" font-size="11" fill="#6a6a9a" letter-spacing="1.5">SERVER</text>

  <rect x="170" y="164" width="340" height="56" rx="8" fill="#082d1f" stroke="#0F6E56" stroke-width="0.8"/>
  <text x="340" y="188" text-anchor="middle" font-family="Helvetica Neue, Arial, sans-serif" font-size="13" font-weight="600" fill="#9FE1CB">Node.js · Express API</text>
  <text x="340" y="206" text-anchor="middle" font-family="Helvetica Neue, Arial, sans-serif" font-size="11" fill="#5DCAA5">Auth middleware · REST routes · Webhook handler</text>

  <line x1="222" y1="220" x2="116" y2="308" stroke="#1D9E75" stroke-width="1.2" marker-end="url(#arr-green)"/>
  <line x1="278" y1="220" x2="240" y2="308" stroke="#1D9E75" stroke-width="1.2" marker-end="url(#arr-green)"/>
  <line x1="340" y1="220" x2="340" y2="308" stroke="#1D9E75" stroke-width="1.2" marker-end="url(#arr-green)"/>
  <line x1="420" y1="220" x2="462" y2="308" stroke="#1D9E75" stroke-width="1.2" marker-end="url(#arr-green)"/>

  <!-- SERVICES -->
  <line x1="40" y1="298" x2="640" y2="298" stroke="#2a2a4a" stroke-width="1"/>
  <text x="50" y="292" font-family="Helvetica Neue, Arial, sans-serif" font-size="11" fill="#6a6a9a" letter-spacing="1.5">SERVICES</text>

  <rect x="44" y="312" width="132" height="52" rx="8" fill="#2a1f04" stroke="#854F0B" stroke-width="0.8"/>
  <text x="110" y="335" text-anchor="middle" font-family="Helvetica Neue, Arial, sans-serif" font-size="13" font-weight="600" fill="#FAC775">Firebase</text>
  <text x="110" y="352" text-anchor="middle" font-family="Helvetica Neue, Arial, sans-serif" font-size="11" fill="#EF9F27">Auth · Storage</text>

  <rect x="190" y="312" width="132" height="52" rx="8" fill="#082d1f" stroke="#0F6E56" stroke-width="0.8"/>
  <text x="256" y="335" text-anchor="middle" font-family="Helvetica Neue, Arial, sans-serif" font-size="13" font-weight="600" fill="#9FE1CB">Supabase</text>
  <text x="256" y="352" text-anchor="middle" font-family="Helvetica Neue, Arial, sans-serif" font-size="11" fill="#5DCAA5">PostgreSQL · Realtime</text>

  <rect x="270" y="312" width="140" height="52" rx="8" fill="#1e1b4b" stroke="#534AB7" stroke-width="0.8"/>
  <text x="340" y="335" text-anchor="middle" font-family="Helvetica Neue, Arial, sans-serif" font-size="13" font-weight="600" fill="#CECBF6">Stripe</text>
  <text x="340" y="352" text-anchor="middle" font-family="Helvetica Neue, Arial, sans-serif" font-size="11" fill="#AFA9EC">Payments · Webhooks</text>

  <rect x="392" y="312" width="132" height="52" rx="8" fill="#1a1a1a" stroke="#444441" stroke-width="0.8"/>
  <text x="458" y="335" text-anchor="middle" font-family="Helvetica Neue, Arial, sans-serif" font-size="13" font-weight="600" fill="#D3D1C7">Resend</text>
  <text x="458" y="352" text-anchor="middle" font-family="Helvetica Neue, Arial, sans-serif" font-size="11" fill="#B4B2A9">Order emails</text>

  <rect x="504" y="312" width="132" height="52" rx="8" fill="#2a0f08" stroke="#993C1D" stroke-width="0.8"/>
  <text x="570" y="335" text-anchor="middle" font-family="Helvetica Neue, Arial, sans-serif" font-size="13" font-weight="600" fill="#F5C4B3">Formspree</text>
  <text x="570" y="352" text-anchor="middle" font-family="Helvetica Neue, Arial, sans-serif" font-size="11" fill="#F0997B">Contact forms</text>

  <!-- LEGEND -->
  <line x1="40" y1="406" x2="640" y2="406" stroke="#2a2a4a" stroke-width="1"/>
  <text x="50" y="400" font-family="Helvetica Neue, Arial, sans-serif" font-size="11" fill="#6a6a9a" letter-spacing="1.5">DATA FLOW</text>

  <line x1="60" y1="428" x2="106" y2="428" stroke="#534AB7" stroke-width="1.2" marker-end="url(#arr-purple)"/>
  <text x="114" y="432" font-family="Helvetica Neue, Arial, sans-serif" font-size="11" fill="#6a6a9a">Auth · API requests</text>

  <line x1="260" y1="428" x2="306" y2="428" stroke="#1D9E75" stroke-width="1.2" marker-end="url(#arr-green)"/>
  <text x="314" y="432" font-family="Helvetica Neue, Arial, sans-serif" font-size="11" fill="#6a6a9a">Server → service calls</text>

  <line x1="460" y1="428" x2="506" y2="428" stroke="#993C1D" stroke-width="1" stroke-dasharray="4 3" marker-end="url(#arr-coral)"/>
  <text x="514" y="432" font-family="Helvetica Neue, Arial, sans-serif" font-size="11" fill="#6a6a9a">Client direct</text>

  <path d="M340 364 Q340 450 226 468 Q128 484 178 408" fill="none" stroke="#534AB7" stroke-width="1" stroke-dasharray="3 3" marker-end="url(#arr-purple)"/>
  <text x="189" y="492" text-anchor="middle" font-family="Helvetica Neue, Arial, sans-serif" font-size="10" fill="#6a6a9a">webhook callback</text>

</svg>
